<svg width="617" height="406" fill="none" xmlns="http://www.w3.org/2000/svg"><path opacity=".2" d="M346.287 339.365c-99.453-35.983-143.899-165.142-99.272-288.485 44.627-123.342 86.917 11.775 186.37 47.758 99.453 35.983 218.409-40.793 173.782 82.55C562.54 304.53 445.74 375.349 346.287 339.365z" fill="#56B9EA"/><ellipse cx="321.991" cy="375.665" rx="269.512" ry="9.476" fill="#D9EDF7"/><g clip-path="url(#clip0)"><path d="M14.9 357.197v11.837c0 3.821 23.895 6.929 53.367 6.929 29.473 0 53.368-3.1 53.368-6.929v-11.837H14.899z" fill="url(#paint0_linear)"/><path d="M68.267 364.127c29.475 0 53.368-3.103 53.368-6.93 0-3.827-23.893-6.929-53.368-6.929-29.474 0-53.368 3.102-53.368 6.929 0 3.827 23.894 6.93 53.368 6.93z" fill="url(#paint1_linear)"/><path d="M68.268 364.602c-26.104 0-53.398-2.49-53.398-7.301 0-.267.097-.728.357-.728s.149.364.149.624c0 3.049 21.725 6.446 52.892 6.446s52.892-3.397 52.892-6.446c0-.267.045-.513.312-.513.268 0 .201.35.201.617-.007 4.811-27.301 7.301-53.405 7.301z" fill="url(#paint2_linear)"/><path d="M63.227 357.584c.52-.365 1.078-.721 1.68-1.071.588-.349 1.36-.669 2.29-.959.937-.282 2.112-.513 3.517-.699 1.405-.178 3.167-.275 5.271-.282 2.06-.008 4 .052 5.807.193 1.807.141 3.398.349 4.773.632 1.368.282 2.491.624 3.353 1.041.855.416 1.368.885 1.532 1.42l6.007.059c.44 0 .826.038 1.153.104.335.067.498.157.498.261v.498l-7.725-.075c-.267.61-.959 1.16-2.074 1.666-1.108.505-2.513.937-4.238 1.308l-2.81-.394a3.25 3.25 0 01-.625-.148c-.164-.06-.238-.127-.238-.194 0-.096.216-.2.654-.327.439-.119.93-.275 1.472-.453.55-.179 1.086-.394 1.614-.64.528-.245.877-.535 1.056-.877l-18.238-.178c-.476.349-1.019.698-1.614 1.04-.594.342-1.383.647-2.364.922-.982.275-2.208.491-3.673.662-1.472.171-3.309.26-5.532.268a55.5 55.5 0 01-4.892-.186c-1.59-.134-3.01-.335-4.245-.602-1.234-.268-2.253-.603-3.048-.997-.788-.394-1.235-.847-1.324-1.368l-4.944-.052c-.439 0-.825-.037-1.167-.104-.342-.067-.513-.156-.513-.26v-.498l6.765.067c.298-.521.915-.974 1.852-1.361.937-.386 2.082-.728 3.435-1.033l2.267.312c.692.097 1.026.208 1.034.342 0 .067-.142.156-.424.26-.29.104-.625.231-1.019.372a8.9 8.9 0 00-1.13.506c-.364.193-.64.416-.825.661l16.632.164zm-16.691.676c.133.327.438.603.9.841.46.237 1.033.431 1.717.579.691.149 1.457.261 2.312.335a29.08 29.08 0 002.699.097 28.694 28.694 0 002.87-.142c.81-.089 1.524-.208 2.141-.364s1.152-.327 1.613-.535a8.744 8.744 0 001.235-.662l-15.487-.149zm39.695-.446c-.134-.327-.469-.617-.982-.862-.513-.246-1.174-.454-1.977-.625a21.421 21.421 0 00-2.803-.379 42.656 42.656 0 00-3.524-.111 27.236 27.236 0 00-2.952.156c-.818.096-1.54.223-2.141.386-.603.164-1.123.35-1.54.573a9.988 9.988 0 00-1.182.699l17.1.163z" fill="#FCB048"/><path d="M68.276 351.026c-23.8 0-48.573 2.097-52.536 6.149.156.141.298.297.432.453 3.338-2.818 23.799-5.65 52.104-5.65 29.033 0 49.814 2.981 52.334 5.866.127-.156.253-.312.402-.454-3.272-4.193-28.52-6.364-52.736-6.364z" fill="url(#paint3_linear)"/><path d="M.067 344.766v11.836c0 3.822 23.896 6.93 53.368 6.93s53.368-3.101 53.368-6.93v-11.836H.067z" fill="url(#paint4_linear)"/><path d="M53.435 351.695c29.475 0 53.368-3.102 53.368-6.929 0-3.827-23.893-6.93-53.368-6.93-29.474 0-53.368 3.103-53.368 6.93 0 3.827 23.894 6.929 53.368 6.929z" fill="url(#paint5_linear)"/><path d="M53.435 352.171c-26.104 0-53.398-2.491-53.398-7.301 0-.268.097-.729.357-.729.268 0 .149.365.149.625 0 3.048 21.725 6.446 52.892 6.446s52.892-3.398 52.892-6.446c0-.268.045-.513.312-.513.268 0 .201.349.201.617-.007 4.81-27.301 7.301-53.405 7.301z" fill="url(#paint6_linear)"/><path d="M48.386 345.152a23.32 23.32 0 011.68-1.07c.588-.35 1.361-.669 2.29-.959.937-.283 2.112-.513 3.517-.699 1.405-.179 3.168-.275 5.272-.283 2.059-.007 4 .052 5.806.194 1.807.141 3.398.349 4.774.632 1.368.282 2.49.624 3.353 1.04.855.417 1.368.885 1.531 1.42l6.008.06c.438 0 .825.037 1.152.104.335.067.498.156.498.26v.498l-7.725-.074c-.267.61-.959 1.16-2.074 1.665-1.108.506-2.513.937-4.238 1.309l-2.81-.394a3.17 3.17 0 01-.625-.149c-.163-.059-.238-.126-.238-.193 0-.097.216-.201.654-.327.44-.119.93-.275 1.473-.454a14.25 14.25 0 001.613-.639c.528-.245.877-.535 1.056-.877l-18.238-.179a17.24 17.24 0 01-1.614 1.041c-.594.342-1.383.647-2.364.922-.981.275-2.208.491-3.673.662-1.472.171-3.308.26-5.531.267a55.116 55.116 0 01-4.892-.186c-1.592-.133-3.012-.334-4.246-.602-1.234-.267-2.253-.602-3.048-.996-.788-.394-1.234-.848-1.324-1.368l-4.944-.052c-.438 0-.825-.037-1.167-.104-.342-.067-.513-.156-.513-.26v-.499l6.766.067c.297-.52.914-.974 1.85-1.36.938-.387 2.083-.729 3.436-1.034l2.267.313c.692.096 1.027.208 1.034.342 0 .066-.141.156-.424.26-.29.104-.624.23-1.018.372a9.038 9.038 0 00-1.13.505c-.365.193-.64.416-.826.662l16.632.163zm-16.684.677c.134.327.439.602.9.84.46.238 1.033.431 1.717.58.692.149 1.457.26 2.313.335.862.074 1.762.104 2.698.096a28.72 28.72 0 002.87-.141c.81-.089 1.524-.208 2.142-.364.617-.156 1.152-.327 1.613-.536.46-.2.862-.423 1.234-.661l-15.487-.149zm39.695-.446c-.134-.327-.468-.617-.981-.863-.513-.245-1.175-.453-1.978-.624a21.25 21.25 0 00-2.803-.379 43.075 43.075 0 00-3.524-.112c-1.137.008-2.126.06-2.952.156-.817.097-1.539.223-2.14.387-.603.163-1.123.349-1.54.572-.424.216-.818.447-1.182.699l17.1.164z" fill="#FCB048"/><path d="M53.443 338.587c-23.8 0-48.573 2.097-52.536 6.149.156.141.298.298.431.454 3.339-2.818 23.8-5.651 52.105-5.651 29.033 0 49.814 2.981 52.334 5.866.127-.156.253-.312.402-.453-3.279-4.194-28.52-6.365-52.736-6.365z" fill="url(#paint7_linear)"/><path d="M12.863 332.365v11.836c0 3.822 23.896 6.929 53.368 6.929s53.368-3.1 53.368-6.929v-11.836H12.863z" fill="url(#paint8_linear)"/><path d="M66.231 339.294c29.475 0 53.368-3.103 53.368-6.93 0-3.827-23.893-6.929-53.368-6.929-29.474 0-53.368 3.102-53.368 6.929 0 3.827 23.894 6.93 53.368 6.93z" fill="url(#paint9_linear)"/><path d="M66.23 339.77c-26.103 0-53.397-2.491-53.397-7.301 0-.268.097-.729.357-.729.268 0 .149.364.149.625 0 3.048 21.724 6.446 52.892 6.446 31.167 0 52.892-3.398 52.892-6.446 0-.268.045-.513.312-.513.268 0 .201.349.201.617 0 4.81-27.301 7.301-53.405 7.301z" fill="url(#paint10_linear)"/><path d="M61.19 332.751a23.75 23.75 0 011.68-1.071c.588-.349 1.36-.669 2.29-.959.937-.282 2.112-.513 3.517-.699 1.405-.178 3.167-.275 5.271-.282 2.06-.008 4 .052 5.807.193 1.807.141 3.398.35 4.773.632 1.368.283 2.49.625 3.353 1.041.855.416 1.368.885 1.532 1.42l6.007.06c.439 0 .826.037 1.153.104.334.067.498.156.498.26v.498l-7.725-.074c-.268.602-.96 1.16-2.074 1.665-1.108.506-2.513.937-4.238 1.309l-2.81-.394a3.32 3.32 0 01-.625-.149c-.164-.06-.238-.126-.238-.193 0-.097.215-.201.654-.328.439-.118.93-.275 1.472-.453a14.25 14.25 0 001.614-.639c.528-.246.877-.536 1.055-.878l-18.238-.178c-.475.349-1.018.699-1.613 1.041-.595.342-1.383.647-2.364.922-.982.275-2.208.49-3.673.661-1.472.171-3.309.261-5.532.268a55.5 55.5 0 01-4.892-.186c-1.59-.134-3.011-.334-4.245-.602-1.234-.268-2.253-.602-3.048-.996-.789-.394-1.235-.848-1.324-1.368l-4.944-.052c-.439 0-.825-.038-1.167-.105-.343-.066-.514-.156-.514-.26v-.498l6.766.067c.298-.52.915-.974 1.852-1.361.936-.386 2.081-.728 3.435-1.033l2.267.312c.692.097 1.026.208 1.034.342 0 .067-.142.156-.424.26-.29.105-.625.231-1.019.372a8.9 8.9 0 00-1.13.506c-.364.193-.64.416-.825.661l16.632.164zm-16.684.677c.134.327.438.602.9.84.46.238 1.033.431 1.717.58a18.8 18.8 0 002.312.334c.863.075 1.762.104 2.7.097a29.023 29.023 0 002.869-.141 16.08 16.08 0 002.141-.365c.617-.156 1.153-.327 1.614-.535.46-.201.862-.424 1.234-.662l-15.487-.148zm39.695-.439c-.134-.327-.468-.617-.981-.863-.513-.245-1.175-.453-1.978-.624a21.424 21.424 0 00-2.803-.379 43.073 43.073 0 00-3.524-.112c-1.138.008-2.127.06-2.952.156-.818.097-1.539.223-2.141.387-.602.164-1.123.349-1.54.572-.423.216-.817.447-1.181.699l17.1.164z" fill="#FCB048"/><path d="M66.238 326.193c-23.799 0-48.572 2.097-52.535 6.149.156.141.298.298.431.454 3.339-2.818 23.8-5.651 52.104-5.651 29.034 0 49.815 2.981 52.335 5.866.126-.156.253-.312.402-.453-3.272-4.194-28.513-6.365-52.737-6.365z" fill="url(#paint11_linear)"/><path d="M20.632 319.933v11.837c0 3.821 23.896 6.929 53.368 6.929s53.368-3.1 53.368-6.929v-11.837H20.632z" fill="url(#paint12_linear)"/><path d="M127.368 319.933c0 3.822-23.896 6.929-53.368 6.929s-53.368-3.1-53.368-6.929c0-3.822 23.896-6.929 53.368-6.929 29.479.007 53.368 3.107 53.368 6.929z" fill="url(#paint13_linear)"/><path d="M74 327.338c-26.104 0-53.398-2.49-53.398-7.301 0-.267.097-.728.357-.728.268 0 .15.364.15.624 0 3.048 21.724 6.446 52.891 6.446 31.168 0 52.893-3.398 52.893-6.446 0-.268.044-.513.312-.513.267 0 .201.35.201.617 0 4.811-27.302 7.301-53.406 7.301z" fill="url(#paint14_linear)"/><path d="M68.96 320.32c.52-.365 1.078-.722 1.68-1.071.587-.349 1.36-.669 2.29-.959.936-.283 2.111-.513 3.516-.699 1.406-.178 3.168-.275 5.272-.283 2.06-.007 4 .053 5.806.194 1.807.141 3.398.349 4.774.632 1.368.282 2.49.624 3.353 1.041.855.416 1.368.884 1.532 1.42l6.007.059c.439 0 .825.037 1.152.104.335.067.498.156.498.26v.499l-7.724-.075c-.268.602-.96 1.16-2.075 1.666-1.108.505-2.513.936-4.238 1.308l-2.81-.394a3.168 3.168 0 01-.625-.149c-.163-.059-.238-.126-.238-.193 0-.096.216-.201.655-.327.438-.119.93-.275 1.472-.454a14.25 14.25 0 001.613-.639c.528-.245.877-.535 1.056-.877l-18.238-.179c-.476.35-1.019.699-1.613 1.041-.595.342-1.383.647-2.365.922-.981.275-2.208.491-3.672.662-1.473.171-3.309.26-5.532.267a55.504 55.504 0 01-4.892-.185c-1.591-.134-3.011-.335-4.246-.603-1.234-.267-2.252-.602-3.048-.996-.788-.394-1.234-.847-1.323-1.368l-4.945-.052c-.438 0-.825-.037-1.167-.104-.342-.067-.513-.156-.513-.26v-.498l6.766.067c.297-.521.914-.974 1.851-1.361.937-.387 2.082-.729 3.435-1.033l2.268.312c.691.096 1.026.208 1.033.342 0 .067-.141.156-.424.26-.29.104-.624.23-1.018.372a9.04 9.04 0 00-1.13.505c-.365.194-.64.417-.825.662l16.631.164zm-16.685.676c.134.327.44.602.9.84.461.238 1.034.432 1.718.58.691.149 1.457.26 2.312.335.862.074 1.762.104 2.699.096a28.723 28.723 0 002.87-.141 15.93 15.93 0 002.14-.364c.618-.156 1.153-.327 1.614-.535a8.744 8.744 0 001.234-.662l-15.487-.149zm39.696-.446c-.134-.327-.469-.617-.982-.862-.513-.246-1.175-.454-1.978-.625a21.424 21.424 0 00-2.802-.379 43.073 43.073 0 00-3.525-.112c-1.137.008-2.126.06-2.951.157-.818.096-1.54.223-2.142.386-.602.164-1.122.35-1.539.573a9.99 9.99 0 00-1.182.699l17.1.163z" fill="#FCB048"/><path d="M74.008 313.755c-23.8 0-48.572 2.096-52.535 6.148.156.142.297.298.43.454 3.34-2.818 23.8-5.651 52.105-5.651 29.033 0 49.814 2.982 52.335 5.866.126-.156.252-.312.401-.453-3.271-4.186-28.513-6.364-52.736-6.364z" fill="url(#paint15_linear)"/><path d="M14.9 306.521v11.836c0 3.822 23.895 6.929 53.367 6.929 29.473 0 53.368-3.1 53.368-6.929v-11.836H14.899z" fill="url(#paint16_linear)"/><path d="M68.267 313.45c29.475 0 53.368-3.103 53.368-6.93 0-3.827-23.893-6.929-53.368-6.929-29.474 0-53.368 3.102-53.368 6.929 0 3.827 23.894 6.93 53.368 6.93z" fill="url(#paint17_linear)"/><path d="M68.268 313.926c-26.104 0-53.398-2.491-53.398-7.301 0-.268.097-.729.357-.729s.149.364.149.625c0 3.048 21.725 6.446 52.892 6.446s52.892-3.398 52.892-6.446c0-.268.045-.513.312-.513.268 0 .201.349.201.617-.007 4.81-27.301 7.301-53.405 7.301z" fill="url(#paint18_linear)"/><path d="M63.227 306.907a23.75 23.75 0 011.68-1.071c.588-.349 1.36-.669 2.29-.959.937-.282 2.112-.513 3.517-.699 1.405-.178 3.167-.275 5.271-.282 2.06-.008 4 .052 5.807.193 1.807.141 3.398.35 4.773.632 1.368.283 2.491.625 3.353 1.041.855.416 1.368.885 1.532 1.42l6.007.06c.44 0 .826.037 1.153.104.335.067.498.156.498.26v.498l-7.725-.074c-.267.602-.959 1.16-2.074 1.665-1.108.506-2.513.937-4.238 1.309l-2.81-.394a3.243 3.243 0 01-.625-.149c-.164-.059-.238-.126-.238-.193 0-.097.216-.201.654-.327.439-.119.93-.276 1.472-.454a14.25 14.25 0 001.614-.639c.528-.246.877-.536 1.056-.878l-18.238-.178c-.476.349-1.019.699-1.614 1.041-.594.342-1.383.647-2.364.922-.982.275-2.208.49-3.673.661-1.472.171-3.309.261-5.532.268a55.5 55.5 0 01-4.892-.186c-1.59-.134-3.01-.334-4.245-.602-1.234-.268-2.253-.602-3.048-.996-.788-.394-1.235-.848-1.324-1.368l-4.944-.052c-.439 0-.825-.038-1.167-.105-.342-.066-.513-.156-.513-.26v-.498l6.765.067c.298-.52.915-.974 1.852-1.361.937-.386 2.082-.728 3.435-1.033l2.267.312c.692.097 1.026.208 1.034.342 0 .067-.142.156-.424.26-.29.105-.625.231-1.019.372a8.9 8.9 0 00-1.13.506c-.364.193-.64.416-.825.661l16.632.164zm-16.691.677c.133.327.438.602.9.84.46.238 1.033.431 1.717.58.691.148 1.457.26 2.312.334a28.73 28.73 0 002.699.097 28.721 28.721 0 002.87-.141 15.92 15.92 0 002.141-.365c.617-.156 1.152-.327 1.613-.535a8.744 8.744 0 001.235-.662l-15.487-.148zm39.695-.446c-.134-.328-.469-.618-.982-.863s-1.174-.453-1.977-.624a21.408 21.408 0 00-2.803-.38 43.1 43.1 0 00-3.524-.111 27.236 27.236 0 00-2.952.156c-.818.097-1.54.223-2.141.387-.603.163-1.123.349-1.54.572a10.25 10.25 0 00-1.182.699l17.1.164z" fill="#FCB048"/><path d="M68.276 300.342c-23.8 0-48.573 2.097-52.536 6.149.156.141.298.297.432.453 3.338-2.818 23.799-5.65 52.104-5.65 29.033 0 49.814 2.981 52.334 5.866.127-.156.253-.312.402-.454-3.272-4.193-28.52-6.364-52.736-6.364z" fill="url(#paint19_linear)"/><path d="M.067 294.089v11.837c0 3.821 23.896 6.922 53.368 6.922s53.368-3.101 53.368-6.922v-11.837H.067z" fill="url(#paint20_linear)"/><path d="M53.435 301.019c29.475 0 53.368-3.103 53.368-6.93 0-3.827-23.893-6.929-53.368-6.929-29.474 0-53.368 3.102-53.368 6.929 0 3.827 23.894 6.93 53.368 6.93z" fill="url(#paint21_linear)"/><path d="M53.435 301.487c-26.104 0-53.398-2.491-53.398-7.301 0-.268.097-.729.357-.729.268 0 .149.365.149.625 0 3.048 21.725 6.446 52.892 6.446s52.892-3.398 52.892-6.446c0-.268.045-.513.312-.513.268 0 .201.349.201.617-.007 4.818-27.301 7.301-53.405 7.301z" fill="url(#paint22_linear)"/><path d="M48.386 294.476c.52-.364 1.078-.721 1.68-1.071.588-.349 1.361-.669 2.29-.959.937-.282 2.112-.513 3.517-.699 1.405-.178 3.168-.275 5.272-.282 2.059-.008 4 .052 5.806.193 1.807.141 3.398.349 4.774.632 1.368.283 2.49.625 3.353 1.041.855.416 1.368.885 1.531 1.42l6.008.059c.438 0 .825.038 1.152.105.335.066.498.156.498.26v.498l-7.725-.074c-.267.609-.959 1.159-2.074 1.665-1.108.506-2.513.937-4.238 1.309l-2.81-.395a3.25 3.25 0 01-.625-.148c-.163-.06-.238-.127-.238-.194 0-.096.216-.2.654-.327.44-.119.93-.275 1.473-.453.55-.179 1.085-.394 1.613-.64.528-.245.877-.535 1.056-.877l-18.238-.178c-.476.349-1.019.699-1.614 1.041-.594.342-1.383.646-2.364.921-.981.276-2.208.491-3.673.662-1.472.171-3.308.26-5.531.268a55.498 55.498 0 01-4.892-.186c-1.592-.134-3.012-.335-4.246-.602-1.234-.268-2.253-.602-3.048-.997-.788-.394-1.234-.847-1.324-1.368l-4.944-.052c-.438 0-.825-.037-1.167-.104-.342-.067-.513-.156-.513-.26v-.498l6.766.067c.297-.521.914-.974 1.85-1.361.938-.386 2.083-.728 3.436-1.033l2.267.312c.692.097 1.027.208 1.034.342 0 .067-.141.156-.424.26-.29.104-.624.231-1.018.372a8.9 8.9 0 00-1.13.506c-.365.193-.64.416-.826.661l16.632.164zm-16.684.669c.134.327.439.602.9.84.46.238 1.033.431 1.717.58.692.149 1.457.26 2.313.335.862.074 1.762.104 2.698.096a28.72 28.72 0 002.87-.141c.81-.089 1.524-.208 2.142-.364.617-.156 1.152-.327 1.613-.536.46-.2.862-.423 1.234-.661l-15.487-.149zm39.695-.439c-.134-.327-.468-.617-.981-.862-.513-.245-1.175-.454-1.978-.625a21.42 21.42 0 00-2.803-.379 42.658 42.658 0 00-3.524-.111 27.238 27.238 0 00-2.952.156c-.817.096-1.539.223-2.14.386-.603.164-1.123.35-1.54.573-.424.216-.818.446-1.182.699l17.1.163z" fill="#FCB048"/><path d="M53.443 287.911c-23.8 0-48.573 2.097-52.536 6.149.156.141.298.297.431.453 3.339-2.818 23.8-5.65 52.105-5.65 29.033 0 49.814 2.981 52.334 5.866.127-.156.253-.313.402-.454-3.279-4.193-28.52-6.364-52.736-6.364z" fill="url(#paint23_linear)"/><path d="M12.863 281.688v11.836c0 3.822 23.896 6.93 53.368 6.93s53.368-3.101 53.368-6.93v-11.836H12.863z" fill="url(#paint24_linear)"/><path d="M66.231 288.617c29.475 0 53.368-3.102 53.368-6.929 0-3.827-23.893-6.93-53.368-6.93-29.474 0-53.368 3.103-53.368 6.93 0 3.827 23.894 6.929 53.368 6.929z" fill="url(#paint25_linear)"/><path d="M66.23 289.093c-26.103 0-53.397-2.491-53.397-7.301 0-.268.097-.729.357-.729.268 0 .149.365.149.625 0 3.048 21.724 6.446 52.892 6.446 31.167 0 52.892-3.398 52.892-6.446 0-.268.045-.513.312-.513.268 0 .201.349.201.617 0 4.81-27.301 7.301-53.405 7.301z" fill="url(#paint26_linear)"/><path d="M61.19 282.074a23.32 23.32 0 011.68-1.07c.588-.35 1.36-.669 2.29-.959.937-.283 2.112-.513 3.517-.699 1.405-.179 3.167-.275 5.271-.283 2.06-.007 4 .052 5.807.193 1.807.142 3.398.35 4.773.632 1.368.283 2.49.625 3.353 1.041.855.417 1.368.885 1.532 1.42l6.007.06c.439 0 .826.037 1.153.104.334.067.498.156.498.26v.498l-7.725-.074c-.268.602-.96 1.16-2.074 1.665-1.108.506-2.513.937-4.238 1.309l-2.81-.394a3.17 3.17 0 01-.625-.149c-.164-.059-.238-.126-.238-.193 0-.097.215-.201.654-.327.439-.119.93-.275 1.472-.454a14.25 14.25 0 001.614-.639c.528-.246.877-.535 1.055-.877l-18.238-.179A17.24 17.24 0 0164.305 284c-.595.342-1.383.647-2.364.922-.982.275-2.208.491-3.673.662-1.472.171-3.309.26-5.532.267a55.117 55.117 0 01-4.892-.186c-1.59-.133-3.011-.334-4.245-.602-1.234-.267-2.253-.602-3.048-.996-.789-.394-1.235-.848-1.324-1.368l-4.944-.052c-.439 0-.825-.037-1.167-.104-.343-.067-.514-.156-.514-.261v-.498l6.766.067c.298-.52.915-.974 1.852-1.36.936-.387 2.081-.729 3.435-1.034l2.267.312c.692.097 1.026.209 1.034.342 0 .067-.142.157-.424.261-.29.104-.625.23-1.019.371a9.192 9.192 0 00-1.13.506c-.364.193-.64.416-.825.662l16.632.163zm-16.684.677c.134.327.438.602.9.84.46.238 1.033.431 1.717.58.684.149 1.457.26 2.312.335a28.76 28.76 0 002.7.096 28.72 28.72 0 002.869-.141c.81-.089 1.524-.208 2.141-.364.617-.157 1.153-.328 1.614-.536.46-.2.862-.423 1.234-.661l-15.487-.149zm39.695-.446c-.134-.327-.468-.617-.981-.863-.513-.245-1.175-.453-1.978-.624a21.254 21.254 0 00-2.803-.379 43.073 43.073 0 00-3.524-.112c-1.138.008-2.127.06-2.952.156-.818.097-1.539.223-2.141.387-.602.163-1.123.349-1.54.572-.423.216-.817.446-1.181.699l17.1.164z" fill="#FCB048"/><path d="M66.238 275.509c-23.799 0-48.572 2.097-52.535 6.149.156.141.298.297.431.454 3.339-2.818 23.8-5.651 52.104-5.651 29.034 0 49.815 2.981 52.335 5.866.126-.156.253-.312.402-.453-3.272-4.186-28.513-6.365-52.737-6.365z" fill="url(#paint27_linear)"/><path d="M6.209 269.256v11.837c0 3.821 23.896 6.929 53.368 6.929s53.368-3.1 53.368-6.929v-11.837H6.209z" fill="url(#paint28_linear)"/><path d="M59.577 276.186c29.474 0 53.368-3.102 53.368-6.929 0-3.827-23.894-6.93-53.368-6.93-29.474 0-53.368 3.103-53.368 6.93 0 3.827 23.894 6.929 53.368 6.929z" fill="url(#paint29_linear)"/><path d="M59.577 276.662c-26.105 0-53.398-2.491-53.398-7.301 0-.268.096-.729.357-.729.26 0 .148.364.148.625 0 3.048 21.725 6.446 52.893 6.446 31.167 0 52.892-3.398 52.892-6.446 0-.268.044-.513.312-.513s.201.349.201.617c-.008 4.81-27.301 7.301-53.405 7.301z" fill="url(#paint30_linear)"/><path d="M54.536 269.643a23.75 23.75 0 011.68-1.071c.587-.349 1.36-.669 2.29-.959.937-.282 2.111-.513 3.517-.699 1.405-.178 3.167-.275 5.271-.282 2.06-.007 4 .052 5.807.193 1.806.142 3.397.35 4.773.632 1.368.283 2.49.625 3.353 1.041.855.416 1.368.885 1.532 1.42l6.007.06c.439 0 .825.037 1.152.104.335.067.499.156.499.26v.498l-7.725-.074c-.268.602-.96 1.16-2.075 1.665-1.107.506-2.513.937-4.238 1.309l-2.81-.394a3.17 3.17 0 01-.624-.149c-.164-.059-.238-.126-.238-.193 0-.097.215-.201.654-.327.438-.119.93-.276 1.472-.454a14.25 14.25 0 001.613-.639c.528-.246.878-.536 1.056-.878l-18.238-.178c-.476.349-1.018.699-1.613 1.041-.595.342-1.383.647-2.365.922-.98.275-2.208.49-3.672.661-1.472.171-3.309.261-5.532.268a55.117 55.117 0 01-4.892-.186c-1.591-.134-3.011-.334-4.245-.602-1.235-.268-2.253-.602-3.049-.996-.788-.394-1.234-.848-1.323-1.368l-4.945-.052c-.438 0-.825-.038-1.167-.104-.342-.067-.513-.157-.513-.261v-.498l6.766.067c.297-.52.915-.974 1.851-1.361.937-.386 2.082-.728 3.435-1.033l2.268.312c.691.097 1.026.208 1.033.342 0 .067-.14.156-.423.261-.29.104-.625.23-1.019.371a9.192 9.192 0 00-1.13.506c-.364.193-.64.416-.825.662l16.632.163zm-16.692.669c.134.327.439.602.9.84.46.238 1.033.432 1.717.58.692.149 1.458.261 2.313.335a29.08 29.08 0 002.698.097 28.694 28.694 0 002.87-.142c.81-.089 1.525-.208 2.142-.364s1.152-.327 1.613-.535a8.75 8.75 0 001.234-.662l-15.487-.149zm39.695-.438c-.133-.328-.468-.618-.981-.863-.513-.245-1.175-.453-1.978-.624a21.406 21.406 0 00-2.803-.38 43.1 43.1 0 00-3.524-.111 27.236 27.236 0 00-2.952.156c-.817.097-1.539.223-2.14.387-.603.163-1.123.349-1.54.572-.424.216-.818.446-1.182.699l17.1.164z" fill="#FCB048"/><path d="M59.584 263.078c-23.8 0-48.572 2.097-52.535 6.149.156.141.297.297.431.453 3.338-2.817 23.8-5.65 52.104-5.65 29.034 0 49.814 2.981 52.335 5.866.126-.156.252-.312.401-.454-3.279-4.193-28.52-6.364-52.736-6.364z" fill="url(#paint31_linear)"/><path d="M125.762 227.554c0 24.602-19.234 43.955-43.829 43.204-25.591-.788-47.108-22.884-47.108-49.33 0-26.446 21.524-45.644 47.108-42.982 24.587 2.558 43.829 24.506 43.829 49.108z" fill="url(#paint32_linear)"/><path d="M132.402 225.428c0 24.602-19.235 43.955-43.83 43.204-25.59-.788-47.107-22.885-47.107-49.331s21.524-45.643 47.108-42.981c24.594 2.557 43.829 24.505 43.829 49.108z" fill="url(#paint33_linear)"/><path d="M130.476 225.301c0 23.517-18.409 41.993-41.896 41.227-24.401-.788-44.885-21.881-44.885-47.078 0-25.197 20.484-43.524 44.885-41.026 23.487 2.401 41.896 23.353 41.896 46.877z" fill="url(#paint34_linear)"/><path d="M129.092 225.204c0 22.744-17.814 40.58-40.513 39.822-23.553-.788-43.3-21.16-43.3-45.472s19.754-42.015 43.3-39.628c22.699 2.297 40.513 22.535 40.513 45.278z" fill="url(#paint35_linear)"/><path d="M88.349 187.658c1.212.111 2.186 1.204 2.186 2.431v4.186a62.608 62.608 0 0112.58 2.758c1.056.35 1.777 1.413 1.665 2.513l-.513 5.25c-.134 1.39-1.517 2.208-2.81 1.635-1.16-.52-2.35-.959-3.569-1.331-2.126-.646-4.372-1.063-6.736-1.256l-.617-.052v11.992c6.305 1.762 10.929 4.134 13.918 7.116 2.974 2.966 4.461 6.669 4.461 11.115 0 4.803-1.643 8.654-4.929 11.554-3.309 2.914-7.948 4.557-13.948 4.914v4.625c0 1.227-.982 2.186-2.186 2.134h-.037c-1.212-.045-2.194-1.086-2.194-2.32v-4.558l-.974-.044a64.342 64.342 0 01-8.081-.863 52.38 52.38 0 01-5.584-1.286c-1.1-.32-1.851-1.361-1.755-2.491l.603-6.751c.133-1.457 1.598-2.304 2.981-1.762a44.02 44.02 0 004.915 1.614 42.726 42.726 0 007.85 1.308l.038-13.338c-6.052-1.495-10.58-3.718-13.554-6.654-2.989-2.952-4.49-6.729-4.49-11.316 0-4.751 1.628-8.417 4.87-10.989 3.226-2.558 7.806-3.837 13.717-3.829v-4.283c-.008-1.227.981-2.134 2.193-2.022zm-2.2 16.007c-1.867.134-3.332.647-4.373 1.539-1.048.893-1.568 2.097-1.568 3.599 0 1.427.483 2.617 1.45 3.576.966.959 2.46 1.718 4.49 2.29v-11.004zm3.88 24.157v12.23c2.03.007 3.591-.483 4.677-1.457 1.085-.974 1.628-2.342 1.628-4.119 0-1.621-.505-2.959-1.517-4.03-1.003-1.056-2.602-1.933-4.788-2.624z" fill="url(#paint36_linear)"/><path opacity=".3" d="M81.249 230.773c1.368-13.517 13.791-19.242 12.17-31.68-.996-7.666-6.81-14.127-13.286-19.167-19.658 2.059-34.855 18.334-34.855 39.628 0 24.312 19.755 44.676 43.301 45.472 2.29.074 4.52-.045 6.692-.327-9.353-9.309-15.197-22.313-14.022-33.926z" fill="url(#paint37_linear)"/></g><path d="M208.782 181.824l28.937 97.922a10.254 10.254 0 003.681 5.302 10.208 10.208 0 006.112 2.043l117.434.322a10.851 10.851 0 007.899-3.386 10.911 10.911 0 002.98-8.081 10.91 10.91 0 00-3.376-7.322 10.85 10.85 0 00-7.47-2.989h-44.902l-35.961-100.478h-62.949a12.913 12.913 0 00-10.366 5.214 12.984 12.984 0 00-2.019 11.453z" fill="#E0869A"/><path d="M308.135 273.68c0 .233-11.976.411-26.744.411-14.768 0-26.733-.178-26.733-.411 0-.234 11.965-.411 26.733-.411s26.744.177 26.744.411zm-90.712-105.434c.21-.066 8.209 23.389 17.858 52.4 9.65 29.011 17.283 52.589 17.073 52.656-.211.066-8.21-23.334-17.859-52.4-9.65-29.067-17.294-52.578-17.072-52.656z" fill="#112A4B"/><path d="M303.249 374.146l-7.157-.167v-86.888h7.157v87.055z" fill="#E0869A"/><path d="M266.368 373.746h66.616l-30.178-10.522h-7.157l-29.281 10.522z" fill="#E0869A"/><path d="M249.518 142.668l11.023 55.234-1.972 41.389 74.094-12.356-2.903-36.222-.089-30 18.169 35.311 14.137-27.411-25.891-47.056a43.718 43.718 0 00-16.939-11 34.684 34.684 0 00-10.625-2.044 42.363 42.363 0 01-25.647 0c-1.041.133-2.481.278-4.309.489h-.333a32.726 32.726 0 00-19.886 10.24 32.904 32.904 0 00-8.708 20.649l-.121 2.777z" fill="#306CE1"/><path d="M278.588 109.013s-30.444.233-34.211 32.478l-.51 23.666 26.212-.222 8.509-55.922z" fill="#306CE1"/><path d="M351.319 150.491c0 .233-23.952.422-53.499.422-29.546 0-53.454-.2-53.454-.422 0-.223 23.941-.411 53.499-.411 29.558 0 53.454.188 53.454.411zm-.001 5.122c0 .222-23.951.411-53.498.411-29.547 0-53.499-.189-53.499-.411 0-.222 23.941-.422 53.499-.422 29.558 0 53.498.189 53.498.422zm-1.705-9.344c0 .233-23.564.422-52.634.422-29.071 0-52.613-.2-52.613-.422 0-.223 23.564-.412 52.646-.412 29.081 0 52.601.178 52.601.412z" fill="#FAFAFA"/><path d="M329.305 196.013c-.232 0-.133-13.078.222-29.189.354-16.111.831-29.178 1.052-29.178.222 0 .133 13.078-.221 29.189-.355 16.111-.831 29.178-1.053 29.178z" fill="#112A4B"/><path d="M318.892 174.813s14.402 1.033 16.994 4.856c2.593 3.822 6.548 14.7 5.052 14.777a4.063 4.063 0 01-2.592-.811l-3.944-7.022s.631 6.778-1.728 6.911c-2.36.133-14.081 2.489-14.081 2.489l.299-21.2z" fill="#FFBE9D"/><path d="M243.879 158.846l-.056 37.233a14.19 14.19 0 001.618 5.853 14.1 14.1 0 009.41 7.191c1.994.444 4.06.448 6.055.012l58.063-12-.121-23.878-50.109 9.678-.665-25.278-24.195 1.189z" fill="#306CE1"/><path d="M277.004 206.146c.248-.09.504-.161.764-.211l2.216-.511 8.53-1.811 30.256-6.233-.299.355v-24.522l.487.411-10.214 1.967-39.883 7.611-.432.089v-.356c.376-11.111.698-20.311.919-26.844.133-3.178.233-5.7.31-7.5 0-.811.078-1.467.111-1.967 0-.228.026-.455.078-.678.014.226.014.452 0 .678v1.978c0 1.8-.067 4.322-.111 7.5-.155 6.544-.366 15.767-.62 26.844l-.421-.344 39.883-7.778 10.214-1.955.488-.1v25.333l-.3.055-30.3 5.889-8.574 1.611-2.272.4c-.272.06-.551.09-.83.089zm33.302-97.133s.111.178.233.544c.192.536.344 1.086.454 1.645a13.471 13.471 0 01-.277 6.266 16.464 16.464 0 01-5.03 7.778 15.637 15.637 0 01-10.569 4.011 14.4 14.4 0 01-10.447-4.255 14.746 14.746 0 01-3.889-8.434 13.214 13.214 0 01.732-6.233 8.566 8.566 0 01.742-1.533c.199-.334.31-.5.343-.489.034.011-.354.744-.786 2.133a14.093 14.093 0 00-.454 6.045 14.458 14.458 0 003.855 7.977 13.745 13.745 0 009.904 3.956 15.063 15.063 0 0010.06-3.745 16.248 16.248 0 004.985-7.4c.606-1.953.78-4.016.51-6.044-.189-1.422-.455-2.2-.366-2.222z" fill="#112A4B"/><path d="M313.109 199.113a17.526 17.526 0 010-3.678c.089-2.222.2-5.378.222-8.822.022-3.445 0-6.567-.122-8.833a18.084 18.084 0 010-3.678c.337 1.186.523 2.411.554 3.644.21 2.222.377 5.4.354 8.889a96.187 96.187 0 01-.454 8.889 15.042 15.042 0 01-.554 3.589zm-3.003.611a18.237 18.237 0 01-.099-3.656c0-2.566.055-5.555.088-8.766v-8.811a17.293 17.293 0 01.133-3.645c.3 1.184.453 2.401.455 3.622.144 2.223.265 5.367.243 8.8-.022 3.434-.155 6.545-.332 8.8a15.139 15.139 0 01-.488 3.656z" fill="#FAFAFA"/><path d="M368.258 347.657l10.968 30.311 15.576 21.456a3.333 3.333 0 01-.919 4.744 3.31 3.31 0 01-3.003.256c-6.281-2.611-29.325-12.345-30.012-14.6-.786-2.622-15.665-35.222-15.665-35.222l23.055-6.945z" fill="#306CE1"/><path opacity=".6" d="M393.927 404.168l-33.801-16.377.499 1.277a5.036 5.036 0 002.215 2.578c2.77 1.5 10.525 5.467 27.952 12.811a3.314 3.314 0 003.09-.289h.045zm-31.451-28.466a1.992 1.992 0 011.451 2.222 1.92 1.92 0 01-2.216 1.467 2.096 2.096 0 01-1.529-2.378 1.997 1.997 0 012.449-1.267" fill="#fff"/><path d="M381.94 393.713a9.907 9.907 0 011.728-3.333c1.407-1.578 3.224-1.812 3.191-2.012-.033-.2-.477-.166-1.219 0a5.273 5.273 0 00-2.498 1.528 5.295 5.295 0 00-1.302 2.628c-.099.733.022 1.189.1 1.189zm3.701 3.189c.188.077.775-1.278 2.149-2.334a24.899 24.899 0 012.781-1.511c0-.189-1.662-.266-3.213.956-1.551 1.222-1.906 2.866-1.717 2.889zm-9.672-6.8c.199.089 1.108-1.989 3.08-3.811 1.972-1.823 4.11-2.578 4.043-2.778-.066-.2-2.404.266-4.52 2.222-2.116 1.956-2.781 4.344-2.603 4.367zm-4.099-8.934c.144.156 1.529-1.189 3.656-2.111 2.127-.922 4.033-1.111 4.022-1.278-.012-.166-2.039-.377-4.31.634-2.271 1.011-3.468 2.655-3.368 2.755zm-3.423-8.811c.155.134 1.429-1.511 3.744-2.3 2.316-.789 4.321-.344 4.365-.544.045-.2-.454-.334-1.296-.467a7.19 7.19 0 00-6.093 2.133c-.598.645-.82 1.123-.72 1.178zm3.024-3.955a2.967 2.967 0 00-.41-1.111 8.461 8.461 0 00-2.05-2.623 3.727 3.727 0 00-2.149-1.111 1.334 1.334 0 00-1.285.823 2.143 2.143 0 000 1.533 4.644 4.644 0 005.417 2.578 5.38 5.38 0 002.656-1.684 5.409 5.409 0 001.266-2.883 1.899 1.899 0 00-.476-1.489 1.32 1.32 0 00-1.518-.155 4.613 4.613 0 00-1.573 1.8 9.674 9.674 0 00-1.108 3.133 2.74 2.74 0 000 1.222 14.764 14.764 0 011.617-4.089 4.357 4.357 0 011.407-1.533.69.69 0 01.831.078 1.282 1.282 0 01.266.989 4.848 4.848 0 01-3.445 3.922 4.009 4.009 0 01-2.66-.235 4.028 4.028 0 01-1.927-1.854 1.548 1.548 0 01-.088-1.111.721.721 0 01.709-.456 3.379 3.379 0 011.828.889 12.363 12.363 0 012.692 3.367z" fill="#112A4B"/><path d="M414.577 339.724l-.941 24.633s24.639 9.245 24.904 13.811l-47.638-.133-.132-38.433 23.807.122z" fill="#306CE1"/><path opacity=".6" d="M398.89 362.246a1.951 1.951 0 00-1.351 2.222c.12.472.419.878.832 1.133s.909.339 1.383.234a2.062 2.062 0 001.418-2.367 1.956 1.956 0 00-2.437-1.166m-7.877 15.733v-3.833l45.821 1.533s2.117.933 1.873 2.433l-47.694-.133z" fill="#fff"/><path d="M414.401 364.113c0 .233-1.163.344-2.315 1.111-1.153.767-1.762 1.733-1.972 1.633-.211-.1.132-1.444 1.539-2.322 1.407-.878 2.803-.633 2.748-.422zm5.007 2.089c.056.233-.952.622-1.75 1.611s-1.019 2.033-1.252 2.022c-.233-.011-.377-1.333.631-2.544 1.009-1.211 2.371-1.311 2.371-1.089zm2.814 6.011c-.21 0-.531-1.111.078-2.389.609-1.278 1.684-1.789 1.784-1.589.099.2-.577.878-1.108 1.933-.532 1.056-.521 2.023-.754 2.045zm-8.221-13.722c-.099.211-1.163-.111-2.481 0-1.319.111-2.349.5-2.471.3-.122-.2.875-1.034 2.426-1.111 1.551-.078 2.637.622 2.526.811z" fill="#112A4B"/><path opacity=".3" d="M414.389 344.602l-.166 4.389-23.431-.278-.022-3.956 23.619-.155z" fill="#000"/><path d="M414.101 353.513c-.784.21-1.609.21-2.393 0a11.096 11.096 0 01-3.866-1.511 3.348 3.348 0 01-.72-.567 1.025 1.025 0 01-.1-1.244 1.284 1.284 0 011.019-.534c.305-.001.607.044.898.134a9.257 9.257 0 011.484.511 8.366 8.366 0 012.216 1.455c1.108 1.034 1.485 1.9 1.407 1.956-.077.055-.643-.656-1.773-1.511a9.214 9.214 0 00-2.127-1.211 8.134 8.134 0 00-1.362-.423c-.51-.144-.942-.144-1.108.078-.166.222-.055.122 0 .267.157.164.336.306.532.422.406.266.828.507 1.263.722.739.367 1.51.665 2.304.889.789.127 1.567.317 2.326.567z" fill="#112A4B"/><path d="M413.791 353.846a3.997 3.997 0 01-.621-2.322 8.02 8.02 0 01.333-2.622c.16-.499.364-.982.609-1.445a1.998 1.998 0 011.529-1.188 1.104 1.104 0 01.997.666c.12.284.202.583.244.889a5.243 5.243 0 010 1.611 5.563 5.563 0 01-1.031 2.467c-.93 1.233-1.905 1.511-1.927 1.433-.023-.078.742-.566 1.451-1.755a5.355 5.355 0 00.764-2.223 4.89 4.89 0 000-1.388c-.066-.5-.254-.912-.443-.867-.188.044-.642.378-.842.789a8.468 8.468 0 00-.598 1.289 8.612 8.612 0 00-.465 2.389c-.111 1.366.133 2.233 0 2.277z" fill="#112A4B"/><path d="M390.814 221.646c-28.173 2.922-65.519 6.767-65.519 6.767l5.096 45.989s54.861-14.545 54.474-13.334c-.388 1.211 2.548 97.845 2.548 97.845h33.036l.62-109.478a27.587 27.587 0 00-2.24-11.311 27.507 27.507 0 00-6.665-9.398 27.422 27.422 0 00-9.919-5.834 27.37 27.37 0 00-11.431-1.246z" fill="#112A4B"/><path d="M257.893 240.202v14.255c0 9.711 11.023 20 20.694 20h7.49c5.893 0 15.133-4.311 19.941-7.778l2.858-2.1 34.41 106.9s39.363-7.077 39.363-8.322c0-1.244-26.655-87.555-38.964-127.611-5.029-16.355-22.5-25.867-38.642-20.322-.543.189-1.108.4-1.651.622-17.681 7.089-45.499 24.356-45.499 24.356z" fill="#112A4B"/><path d="M382.605 363.146a1.98 1.98 0 01-.166-.377c-.122-.3-.266-.678-.443-1.112-.377-1.011-.92-2.5-1.562-4.444-1.319-3.856-3.124-9.489-5.318-16.456-4.431-13.922-10.281-33.222-16.684-54.555-3.191-10.678-6.215-20.845-8.985-30.111-1.374-4.622-2.67-9.022-3.889-13.145-.62-2.059-1.211-4.04-1.772-5.944a52.423 52.423 0 00-1.795-5.411 22.229 22.229 0 00-5.539-7.9 47.556 47.556 0 00-5.828-4.545 127.509 127.509 0 00-3.944-2.522l-1.03-.655a1.385 1.385 0 01-.343-.245c.133.04.26.1.376.178l1.108.578c.942.511 2.316 1.3 4.033 2.4a43.986 43.986 0 015.96 4.444 22.375 22.375 0 015.783 8 52.397 52.397 0 011.861 5.456c.588 1.9 1.186 3.889 1.817 5.944l3.966 13.111a45682.52 45682.52 0 009.052 30.089c6.403 21.3 12.186 40.589 16.44 54.633l5.074 16.523 1.418 4.444c.144.478.255.856.355 1.167.1.311.077.455.055.455zm8.309-115.9c.199.134-1.673 2.956-3.235 6.789-1.562 3.833-2.271 7.145-2.515 7.1-.244-.044.111-3.489 1.751-7.422 1.639-3.933 3.833-6.6 3.999-6.467zm6.337 4.445c.089.222-2.747 1.477-5.705 3.822-2.958 2.344-4.864 4.8-5.063 4.655-.2-.144 1.462-2.889 4.553-5.3s6.138-3.377 6.215-3.177zm-53.643 119.777c-.21.067-9.505-28.533-20.761-63.888-11.256-35.356-20.185-64.078-19.942-64.145.244-.066 9.506 28.533 20.762 63.9 11.255 35.367 20.163 64.067 19.941 64.133zm-42.22-166.766l112.614 1.089 21.005-59.534-81.915.556-19.011 53.533-32.693.5v3.856z" fill="#E0869A"/><path d="M386.771 181.157a4.553 4.553 0 01-2.406-1.117 4.58 4.58 0 01-1.271-4.927 4.56 4.56 0 016.63-2.431 4.57 4.57 0 011.793 1.959c.391.816.532 1.731.405 2.627a4.577 4.577 0 01-1.774 3.013 4.554 4.554 0 01-3.377.876z" fill="#fff"/><path d="M292.192 43.569c1.108-3.967 4.044-5.912 7.91-7.234a12.684 12.684 0 0111.633 1.889c2.215 1.667 3.877 4.078 6.47 4.978 4.254 1.478 9.239-1.711 13.294.2a5.81 5.81 0 012.821 2.765 5.838 5.838 0 01-1.786 7.223 5.793 5.793 0 01-3.783 1.123c2.77 1.022 3.634 4.989 2.017 7.467-1.618 2.477-4.952 3.41-7.866 2.866a16.29 16.29 0 01-7.633-4.289c-2.216-1.977-4.166-4.222-6.515-6.022a12.616 12.616 0 00-8.153-3c-4 .211-7.423 3.233-9.207 6.833-1.783 3.6-2.215 7.69-2.415 11.7-.199 4.012-.288 8.078-1.473 11.912-.144.455-.355.955-.798 1.11-.654.2-1.208-.488-1.529-1.11a59.009 59.009 0 01-6.702-21.9c-.455-4.445-.344-8.645 2.093-12.39 2.438-3.744 8.586-6.488 11.6-4.121" fill="#112A4B"/><path d="M284.471 62.157l-2.05 44.956c-.343 7.644.709 18.956 12.785 18.956 10.48-.8 13.571-10.623 13.892-17.778.144-3.334.277-6.2.322-6.545 0 0 11.455-.555 12.795-11.844.643-5.456 1.108-16.811 1.33-27.078a21.224 21.224 0 00-5.221-14.477 21.106 21.106 0 00-13.613-7.112l-1.108-.11c-11.821-.545-18.9 9.188-19.132 21.032z" fill="#FFBE9D"/><path d="M309.453 101.602a26.285 26.285 0 01-14.247-5.756s2.604 8.5 13.959 8.689l.288-2.933z" fill="#EB996E"/><path d="M319.457 70.069a1.618 1.618 0 01-1.728 1.467 1.54 1.54 0 01-1.496-1.634 1.624 1.624 0 011.717-1.467 1.535 1.535 0 011.419 1.023c.07.195.1.403.088.61zm1.074-1.934c-.222.189-1.34-.844-3.08-1.022-1.739-.178-3.091.555-3.257.322-.166-.233.166-.467.764-.811a4.478 4.478 0 012.637-.522c.903.1 1.75.49 2.415 1.11.488.445.632.845.521.923zm-18.124.711a1.622 1.622 0 01-1.728 1.467 1.556 1.556 0 01-1.412-1.026 1.553 1.553 0 01-.095-.607c.045-.42.25-.808.572-1.081a1.635 1.635 0 011.157-.386 1.549 1.549 0 011.415 1.024c.071.195.102.402.091.61zm1.063-2.2c-.221.19-1.34-.844-3.079-1.033-1.74-.189-3.091.555-3.257.322-.167-.233.166-.455.764-.8a4.421 4.421 0 012.637-.522 4.305 4.305 0 012.415 1.111c.487.433.631.833.52.922zm4.92 13.556a11.293 11.293 0 012.869-.211c.454 0 .875 0 .986-.334a2.393 2.393 0 00-.155-1.355c-.31-1.111-.62-2.29-.953-3.511-1.307-5-2.216-9.1-2.005-9.156.21-.056 1.429 3.967 2.736 8.967.311 1.233.61 2.41.887 3.533.212.57.212 1.197 0 1.767a1.12 1.12 0 01-.787.578 3.024 3.024 0 01-.764 0c-.946.02-1.891-.073-2.814-.278zm-5.219.655c.277 0 .089 1.9 1.551 3.411 1.463 1.511 3.49 1.511 3.479 1.778-.011.267-.487.322-1.341.256a4.733 4.733 0 01-2.913-1.39 4.11 4.11 0 01-1.175-2.844c.012-.788.311-1.233.399-1.21zm1.474-20.977c-.222.455-1.928 0-3.988.077-2.061.078-3.756.411-3.989 0-.088-.21.244-.622.953-1.01a6.842 6.842 0 016.071 0c.709.31 1.053.721.953.932zm15.787 3.166c-.344.356-1.496-.178-2.925-.355-1.429-.178-2.681 0-2.914-.456-.111-.21.122-.589.698-.91a4.123 4.123 0 012.449-.39 4.058 4.058 0 012.215 1.045c.51.455.632.889.477 1.066z" fill="#112A4B"/><path d="M284.504 70.624c-.188-.1-7.5-3.122-8.076 4.633-.577 7.756 7.311 6.734 7.334 6.511.022-.222.742-11.144.742-11.144z" fill="#FFBE9D"/><path d="M281.623 78.657s-.144.09-.377.178c-.331.107-.69.088-1.008-.055a3.39 3.39 0 01-1.329-3.123 4.494 4.494 0 01.521-1.9 1.574 1.574 0 011.107-.966.696.696 0 01.765.433c.089.222 0 .378.066.389.067.011.178-.111.144-.445a.82.82 0 00-.277-.5.99.99 0 00-.731-.255 1.913 1.913 0 00-1.495 1.111 4.666 4.666 0 00-.621 2.122c-.066 1.567.621 3.09 1.717 3.5a1.44 1.44 0 001.241-.122c.244-.178.299-.356.277-.367z" fill="#EB996E"/><path d="M326.182 60.713a16.363 16.363 0 01-7.634-.705 16.405 16.405 0 01-6.481-4.106c-2.492-2.622-4.254-6.2-7.577-7.633a9.215 9.215 0 00-7.102.21 17.736 17.736 0 00-5.827 4.334c1.562 5.978-.576 12.222-2.692 18.033a3.103 3.103 0 01-1.108 1.69c-.986.61-2.293-.09-3.002-1.012a9.607 9.607 0 01-1.551-5.255 31.957 31.957 0 011.396-12.534 21.864 21.864 0 017.09-10.289 20.494 20.494 0 0114.945-3.844 25.172 25.172 0 0114.003 6.767 14.81 14.81 0 014.155 5.977M478.911 96.89l-21.104 88.523h5.905l20.783-88.522h-5.584z" fill="#112A4B"/><path d="M470.802 155.157c-.377 1.622 9.56 49.878 9.56 49.878h-4.786l-7.5-38.244 2.726-11.634z" fill="#112A4B"/><path d="M541.084 268.857h-98.855v105.1h98.855v-105.1z" fill="#306CE1"/><path d="M545.926 284.213h-4.853v4.867h4.853v-4.867zm0 15.455h-4.853v4.867h4.853v-4.867zm0 15.456h-4.853v4.867h4.853v-4.867zm0 15.456h-4.853v4.866h4.853v-4.866z" fill="#112A4B"/><path d="M546.114 316.546c.483-.156.98-.264 1.484-.322a23.48 23.48 0 014.166-.4c2.111-.05 4.193.501 6.005 1.589a6.947 6.947 0 012.627 2.849c.588 1.18.83 2.504.696 3.817a8.402 8.402 0 01-1.263 3.812 10 10 0 01-2.548 2.711 13.005 13.005 0 01-5.783 2.289 18.707 18.707 0 01-4.177.144 6.589 6.589 0 01-1.517-.211 9.37 9.37 0 011.517 0 22.115 22.115 0 004.111-.322 12.966 12.966 0 005.539-2.311 8.543 8.543 0 003.556-6.145 6.451 6.451 0 00-3.046-6.178 10.987 10.987 0 00-5.728-1.622 28.81 28.81 0 00-4.121.211 7.348 7.348 0 01-1.518.089z" fill="#112A4B"/><path d="M544.906 301.18a2.02 2.02 0 01.454-.278c.465-.23.946-.423 1.441-.578a11.287 11.287 0 015.683-.322 5.163 5.163 0 011.806.722 3.141 3.141 0 011.274 1.733 5.291 5.291 0 01-.51 3.543 5.269 5.269 0 01-2.648 2.402 3.21 3.21 0 01-2.669-.145 2.741 2.741 0 01-1.54-2.333 2.8 2.8 0 011.573-2.411 4.238 4.238 0 012.825-.3c.903.197 1.748.6 2.47 1.178a6.672 6.672 0 012.46 4.444 6.216 6.216 0 01-1.263 4.445 8.968 8.968 0 01-3.036 2.566 14.373 14.373 0 01-5.539 1.445c-.665.055-1.185.077-1.54.077-.18.029-.363.029-.543 0 0 0 .742-.1 2.061-.266a15.34 15.34 0 005.34-1.578 8.715 8.715 0 002.847-2.5 5.805 5.805 0 001.108-4.056 6.152 6.152 0 00-2.282-4.033 5.291 5.291 0 00-2.216-1.055 3.766 3.766 0 00-2.448.244 2.223 2.223 0 00-1.263 1.9 2.216 2.216 0 001.229 1.833 2.611 2.611 0 002.216.123 4.332 4.332 0 001.828-1.334 4.513 4.513 0 001.108-3.955 3.322 3.322 0 00-2.714-2.223 11.665 11.665 0 00-5.54.134c-1.296.277-1.95.633-1.972.578z" fill="#112A4B"/><path d="M544.951 286.102a2.616 2.616 0 011.108-.2 7.742 7.742 0 012.969.366 8.386 8.386 0 013.689 2.5 8.18 8.18 0 011.917 5.112 8.303 8.303 0 01-1.595 5.222 8.368 8.368 0 01-3.568 2.722 7.747 7.747 0 01-2.936.6 2.556 2.556 0 01-1.107-.133 10.925 10.925 0 003.855-.834 8.297 8.297 0 003.268-2.666 8.116 8.116 0 00-.288-9.667 8.452 8.452 0 00-3.423-2.456 10.885 10.885 0 00-3.889-.566z" fill="#112A4B"/><path d="M471.577 213.013c.349.622.628 1.282.831 1.967a37.444 37.444 0 011.318 5.966c.41 2.622.754 5.856 1.108 9.6.355 3.745.654 8.034 1.252 12.734.155 1.166.344 2.366.587 3.577a15.77 15.77 0 001.108 3.578 13.07 13.07 0 002.426 3 18.922 18.922 0 0011.179 5.2 15.688 15.688 0 008.73-1.511 10.617 10.617 0 005.639-7.111 8.186 8.186 0 00-.333-4.722 8.342 8.342 0 00-3.068-3.723 9.197 9.197 0 00-4.676-1.555 7.367 7.367 0 00-4.73 1.389 5.19 5.19 0 00-1.607 1.9 3.896 3.896 0 00-.31 2.422 5.86 5.86 0 003.069 3.911 14.078 14.078 0 005.052 1.4c1.742.221 3.495.344 5.251.367a83.43 83.43 0 0010.325-.578c6.736-.756 13.295-1.844 19.532-1.911 6.237-.067 12.341.8 17.404 3.333a20.501 20.501 0 016.47 4.856 14.891 14.891 0 013.324 6.666 18 18 0 01-1.939 12.5 21.003 21.003 0 01-6.569 7.034 24.8 24.8 0 01-5.429 2.778c-.666.246-1.347.45-2.039.611l.51-.189c.344-.1.842-.289 1.485-.533a25.592 25.592 0 005.351-2.856 21.033 21.033 0 006.414-7 17.824 17.824 0 001.806-12.222 14.71 14.71 0 00-3.324-6.467 20.042 20.042 0 00-6.348-4.711c-4.985-2.422-10.979-3.333-17.183-3.189-6.204.144-12.718 1.167-19.487 1.933a79.674 79.674 0 01-10.392.6 47.737 47.737 0 01-5.317-.366 14.6 14.6 0 01-5.252-1.467 6.459 6.459 0 01-3.323-4.311 4.514 4.514 0 01.354-2.778 5.79 5.79 0 011.784-2.111 7.963 7.963 0 015.096-1.511 9.835 9.835 0 014.974 1.667 8.882 8.882 0 013.269 3.977 8.78 8.78 0 01.354 5.056 11.123 11.123 0 01-2.13 4.4 11.083 11.083 0 01-3.808 3.055 16.107 16.107 0 01-9.029 1.545 19.104 19.104 0 01-8.176-2.822 18.892 18.892 0 01-3.268-2.545 13.301 13.301 0 01-2.504-3.133 16.146 16.146 0 01-1.108-3.7 50.3 50.3 0 01-.565-3.6c-.576-4.722-.853-9-1.174-12.756-.321-3.755-.632-6.977-.997-9.6a40.401 40.401 0 00-1.208-5.966c-.146-.51-.319-1.01-.521-1.5a5.127 5.127 0 01-.188-.578z" fill="#112A4B"/><path d="M535.456 369.602v-7.011c0-4.567 0-11.234-.066-19.689 0-16.922-.078-41.034-.133-69.878l.254.256h-89.349l.288-.289v96.577l-.243-.244 64.743.122 18.158.067h6.459-1.607l-4.874.089-18.092.066-64.909.123h-.255v-97.056h89.903v.2l-.133 70c0 8.445 0 15.089-.066 19.633v6.478c0 .311-.078.556-.078.556z" fill="#112A4B"/><path d="M510.253 284.857a.459.459 0 01-.278.431.447.447 0 01-.176.036.47.47 0 01-.537-.461.469.469 0 01.338-.449.46.46 0 01.199-.012.455.455 0 01.454.455zm2.558 0a.449.449 0 01-.129.33.443.443 0 01-.325.137.478.478 0 01-.199-.012.474.474 0 01-.295-.254.47.47 0 01.12-.55.472.472 0 01.374-.106.453.453 0 01.454.455zm2.527 0a.459.459 0 01-.278.431.447.447 0 01-.176.036.47.47 0 01-.537-.461.469.469 0 01.338-.449.46.46 0 01.199-.012.455.455 0 01.454.455zm2.525 0a.471.471 0 01-.279.439.466.466 0 01-.617-.603.468.468 0 01.431-.291.467.467 0 01.465.455zm2.526 0a.467.467 0 01-.465.467.465.465 0 01-.282-.765.465.465 0 01.282-.157.467.467 0 01.465.455zm2.527 0a.464.464 0 01-.137.33.461.461 0 01-.329.137.466.466 0 010-.922.462.462 0 01.466.455zm2.525 0a.467.467 0 01-.465.467.465.465 0 01-.282-.765.465.465 0 01.282-.157.467.467 0 01.465.455zm-1.628 2.167a.455.455 0 10-.003-.91.455.455 0 00.003.91zm-2.581 0a.455.455 0 10-.003-.91.455.455 0 00.003.91zm-2.116-.456a.456.456 0 01-.454.456.452.452 0 01-.466-.456c0-.061.012-.121.036-.178a.454.454 0 01.251-.253.476.476 0 01.355.001.457.457 0 01.278.43zm-3.048.456a.456.456 0 10-.001-.911.456.456 0 00.001.911zm-2.591 0a.455.455 0 10-.001-.91.455.455 0 00.001.91zm-2.117-.456a.461.461 0 01-.288.425.447.447 0 01-.177.031.453.453 0 01-.454-.456.447.447 0 01.129-.329.443.443 0 01.325-.137.474.474 0 01.329.136.474.474 0 01.136.33zm-1.108 1.923a.455.455 0 01-.454.455.447.447 0 01-.429-.278.467.467 0 01.606-.608.443.443 0 01.246.253.449.449 0 01.031.178zm2.56 0a.455.455 0 01-.454.455.444.444 0 01-.328-.129.46.46 0 01-.001-.656.461.461 0 01.654 0 .462.462 0 01.129.33zm2.525 0a.455.455 0 01-.454.455.447.447 0 01-.429-.278.452.452 0 01-.001-.356.471.471 0 01.43-.288.448.448 0 01.325.137.446.446 0 01.129.33zm2.527 0a.467.467 0 11-.922-.146.467.467 0 01.922.146zm2.525 0a.46.46 0 01-.919 0 .449.449 0 01.278-.431.463.463 0 01.641.431zm2.527 0a.452.452 0 01-.137.326.452.452 0 01-.329.129.455.455 0 01-.454-.455.459.459 0 01.278-.431.461.461 0 01.505.101.464.464 0 01.137.33zm2.525 0a.46.46 0 01-.919 0 .449.449 0 01.129-.33.453.453 0 01.325-.137.463.463 0 01.465.467zm-1.163 1.7a.466.466 0 01-.642.43.443.443 0 01-.246-.253.447.447 0 01-.031-.177.455.455 0 01.454-.456.465.465 0 01.177.031.446.446 0 01.252.248.448.448 0 01.036.177zm-2.593 0a.447.447 0 01-.129.329.447.447 0 01-.325.137.466.466 0 01-.43-.643.464.464 0 01.253-.248.462.462 0 01.177-.031.455.455 0 01.454.456zm-2.569 0a.459.459 0 01-.278.43.476.476 0 01-.355.001.478.478 0 01-.251-.253.453.453 0 010-.355.461.461 0 01.252-.248.47.47 0 01.597.25.456.456 0 01.035.175zm-2.593 0a.465.465 0 01-.129.329.447.447 0 01-.325.137.465.465 0 01-.329-.793.462.462 0 01.329-.129.455.455 0 01.454.456zm-2.581 0a.463.463 0 01-.107.375.458.458 0 01-.353.163.468.468 0 01-.303-.821.469.469 0 01.606 0 .47.47 0 01.157.283zm-2.582 0a.466.466 0 01-.642.43.443.443 0 01-.246-.253.447.447 0 01-.031-.177.455.455 0 01.454-.456.465.465 0 01.177.031.461.461 0 01.288.425zm-1.108 1.922a.452.452 0 01-.454.467.47.47 0 01-.465-.467.448.448 0 01.137-.326.466.466 0 01.649.004.451.451 0 01.133.322zm2.56 0a.452.452 0 01-.454.467.466.466 0 01-.328-.793.463.463 0 01.328-.13.456.456 0 01.454.456zm2.525 0a.452.452 0 01-.454.467.457.457 0 01-.329-.137.482.482 0 01-.101-.151.48.48 0 01.001-.356.447.447 0 01.252-.247.466.466 0 01.498.102.451.451 0 01.133.322zm2.527 0a.463.463 0 01-.107.375.464.464 0 01-.801-.176.47.47 0 01.145-.482.467.467 0 01.763.283zm2.525 0a.469.469 0 01-.465.467.461.461 0 01-.423-.289.452.452 0 01-.031-.178.456.456 0 01.454-.456.463.463 0 01.328.13.45.45 0 01.137.326zm2.527 0a.465.465 0 01-.642.431.46.46 0 01-.278-.431.456.456 0 01.454-.456.471.471 0 01.329.13.447.447 0 01.137.326zm2.525 0a.469.469 0 01-.465.467.456.456 0 01-.454-.467.45.45 0 01.28-.421.466.466 0 01.502.095.45.45 0 01.137.326zm-1.628 2.167a.455.455 0 10-.003-.91.455.455 0 00.003.91zm-2.581 0a.455.455 0 10-.003-.91.455.455 0 00.003.91zm-2.117-.456a.453.453 0 01-.454.456.463.463 0 01-.374-.107.468.468 0 01.374-.816.45.45 0 01.423.289.452.452 0 01.031.178zm-3.047.456a.456.456 0 10-.001-.911.456.456 0 00.001.911zm-2.591 0a.455.455 0 00.454-.456.455.455 0 10-.909 0c0 .252.204.456.455.456zm-2.117-.456a.467.467 0 01-.465.456.467.467 0 010-.923.47.47 0 01.465.467z" fill="#112A4B"/><path d="M475.355 181.035a5.814 5.814 0 011.795.322 10.075 10.075 0 014.365 2.856 19.074 19.074 0 013.866 7.333 72.879 72.879 0 012.426 10.745 135.9 135.9 0 01.709 28.611 16.828 16.828 0 01-2.481 7.933 10.184 10.184 0 01-3.125 3.033 6.98 6.98 0 01-4.32 1.034 6.705 6.705 0 01-4.11-1.922 5.041 5.041 0 01-1.208-2.012 4.272 4.272 0 010-2.388 5.112 5.112 0 013.091-3.5 3.623 3.623 0 012.448 0 4.366 4.366 0 011.95 1.477 6.083 6.083 0 011.108 4.6 12.533 12.533 0 01-1.606 4.378 16.88 16.88 0 01-10.01 7.957 16.826 16.826 0 01-12.701-1.357 19.28 19.28 0 01-5.983-5.167 25.317 25.317 0 01-3.689-6.477 42.888 42.888 0 01-2.426-13.111c-.211-4.078 0-7.778-.388-10.978a18.874 18.874 0 00-1.03-4.334 12.37 12.37 0 00-1.851-3.244 9.317 9.317 0 00-4.121-3.056 13.468 13.468 0 00-1.761-.422 5.883 5.883 0 011.806.322 9.066 9.066 0 014.243 3.012 12.307 12.307 0 011.938 3.333c.549 1.43.921 2.923 1.108 4.444.432 3.234.233 6.934.477 10.989a42.855 42.855 0 002.47 12.967 24.974 24.974 0 003.579 6.378 18.842 18.842 0 005.838 5.011 16.296 16.296 0 0012.286 1.284 16.353 16.353 0 009.672-7.706 11.979 11.979 0 001.529-4.167 5.485 5.485 0 00-.964-4.178 3.95 3.95 0 00-1.695-1.289 3.052 3.052 0 00-2.061 0 4.546 4.546 0 00-2.725 3.1 4.002 4.002 0 001.108 3.856 6.115 6.115 0 003.755 1.755 6.415 6.415 0 003.978-.944 9.61 9.61 0 002.958-2.867 16.316 16.316 0 002.404-7.678c.792-9.494.599-19.045-.576-28.5a74.8 74.8 0 00-2.338-10.7 19.026 19.026 0 00-3.722-7.277 10.094 10.094 0 00-4.233-2.9 13.43 13.43 0 00-1.783-.556z" fill="#DFF1FA"/><path d="M466.659 197.113h-36.804v7.033h36.804v-7.033z" fill="#DFF1FA"/><path d="M200.993 269.824h-48.004v103.633h48.004V269.824z" fill="#112A4B"/><path d="M196.872 362.546v-6.7c0-4.333 0-10.611-.078-18.511 0-15.8-.077-38.044-.133-63.922l.277.267h-40.16l.288-.289c0 34.622 0 66.066-.077 89.133l-.211-.211 29.325.111 8.021.055h2.825-10.713l-29.458.112h-.199v-.212c0-23.066 0-54.511-.089-89.133v-.289h40.736v.278c0 25.956-.099 48.267-.133 64.111 0 7.867 0 14.134-.077 18.445v6.155c0 .3-.144.6-.144.6z" fill="#E0869A"/><path d="M194.39 280.957v-1.111c0-.722 0-1.733-.066-3l.122.122c-6.215.1-19.532.167-34.92.167l.288-.289v4.078l-.277-.289c9.76 0 18.446.067 24.728.122l7.433.078h2.028c.243-.025.488-.025.731 0a4.461 4.461 0 01-.654 0h-1.972l-7.356.078c-6.27.066-15.056.122-24.938.122h-.288v-4.367l.299-.289c15.388 0 28.705.067 34.92.167h.044v.122c0 1.3 0 2.323-.066 3.078.007.405-.011.809-.056 1.211zm-31.407 2.934c0 .155-.72.289-1.607.289-.886 0-1.617-.134-1.617-.289 0-.156.72-.289 1.617-.289.898 0 1.607.122 1.607.289zm30.476 5.344c0 .156-7.433.289-16.617.289-9.185 0-16.618-.133-16.618-.289 0-.155 7.422-.289 16.618-.289 9.195 0 16.617.134 16.617.289zm.144 6.456c0 .166-7.311.289-16.318.289-9.007 0-16.319-.123-16.319-.289 0-.167 7.301-.289 16.319-.289 9.018 0 16.318.133 16.318.289z" fill="#E0869A"/><path d="M176.853 313.435a2.64 2.64 0 002.636-2.644 2.64 2.64 0 00-2.636-2.645 2.64 2.64 0 00-2.637 2.645 2.64 2.64 0 002.637 2.644z" fill="#306CE1"/><path d="M169.408 310.713a11.213 11.213 0 01-3.534.289 11.109 11.109 0 01-3.49-.289c1.15-.29 2.341-.388 3.523-.289a10.833 10.833 0 013.501.289zm21.448-.733a9.845 9.845 0 01-3.323.288 9.798 9.798 0 01-3.324-.288 10.113 10.113 0 013.324-.289c1.116-.087 2.239.01 3.323.289z" fill="#E0869A"/><path d="M154.629 321.824a10.244 10.244 0 01-1.795-.333 15.693 15.693 0 01-4.752-2.223 20.393 20.393 0 01-5.728-5.989 34.704 34.704 0 01-4.177-10.177 41.703 41.703 0 01-1.274-13.256 27.276 27.276 0 015.041-14.378 22.667 22.667 0 016.016-5.733 20.854 20.854 0 013.866-1.922 21.385 21.385 0 014.277-1.022c2.924-.412 5.916-.356 8.863-.534a22.023 22.023 0 008.763-2.022 9.851 9.851 0 005.45-6.667 9.39 9.39 0 00-1.875-8.008 9.323 9.323 0 00-7.453-3.436 6.632 6.632 0 00-3.7 1.378 4.023 4.023 0 00-1.551 3.333 5.397 5.397 0 001.607 3.29 5.367 5.367 0 003.334 1.499 8.14 8.14 0 006.337-2.856 15.294 15.294 0 003.124-6.055c.551-2.05.976-4.132 1.274-6.234.795-6.378.992-12.817.587-19.233-.11-2.222-.199-4.011-.266-5.233 0-.578-.022-1.034-.066-1.367a2.429 2.429 0 010-.467c.037.154.059.31.066.467 0 .333.067.778.122 1.356.089 1.2.233 2.955.366 5.233a98.257 98.257 0 01-.41 19.3 51.917 51.917 0 01-1.252 6.3 15.774 15.774 0 01-3.135 6.233 8.594 8.594 0 01-6.725 3.034 5.862 5.862 0 01-3.677-1.639 5.894 5.894 0 01-1.762-3.628 4.59 4.59 0 011.739-3.8 7.056 7.056 0 013.999-1.5 9.948 9.948 0 015.357 1.5 10.018 10.018 0 012.498 14.789 11.423 11.423 0 01-3.711 2.9 22.58 22.58 0 01-8.996 2.089c-3.025.178-6.005.122-8.863.511a21.46 21.46 0 00-4.166.989 19.733 19.733 0 00-3.755 1.866 22.313 22.313 0 00-5.894 5.556 26.897 26.897 0 00-4.985 14.089 41.666 41.666 0 001.24 13.144 35.03 35.03 0 004.055 10.1 20.355 20.355 0 005.539 5.978 16.347 16.347 0 004.665 2.289c.565.167 1.008.267 1.307.333.164.032.324.084.476.156z" fill="#112A4B"/><path d="M149.6 205.068v10.622h58.65v158.289h5.395V215.69l244.937 1.212v157.077h5.296V216.613l37.8.3v-12.767l-352.078.922z" fill="#112A4B"/><path d="M187.133 213.624l23.121 16.7-2.005 1.933-23.32-17.611 2.204-1.022zm298.536 1.555l-26.832 19.167 2.016 1.933 27.021-20.077-2.205-1.023zM251.955 109.057H138.288v78.289h113.667v-78.289z" fill="#112A4B"/><path d="M201.813 176.668h-15.477v29.534h15.477v-29.534z" fill="#112A4B"/><defs><linearGradient id="paint0_linear" x1="5.775" y1="366.581" x2="128.569" y2="366.581" gradientUnits="userSpaceOnUse"><stop stop-color="#FCB148"/><stop offset=".052" stop-color="#FDBA46"/><stop offset=".142" stop-color="#FFC244"/><stop offset=".318" stop-color="#FFC444"/><stop offset=".485" stop-color="#FDB946"/><stop offset=".775" stop-color="#F99C4D"/><stop offset=".866" stop-color="#F8924F"/><stop offset="1" stop-color="#F8924F"/></linearGradient><linearGradient id="paint1_linear" x1="67.737" y1="352.748" x2="74.21" y2="406.942" gradientUnits="userSpaceOnUse"><stop stop-color="#FFDB44"/><stop offset="1" stop-color="#FEEF06"/></linearGradient><linearGradient id="paint2_linear" x1="67.456" y1="350.332" x2="69.444" y2="366.975" gradientUnits="userSpaceOnUse"><stop stop-color="#FFDB44"/><stop offset="1" stop-color="#FEEF06"/></linearGradient><linearGradient id="paint3_linear" x1="69.325" y1="365.23" x2="67.344" y2="348.646" gradientUnits="userSpaceOnUse"><stop offset=".004" stop-color="#F36F56"/><stop offset=".306" stop-color="#F99C4C"/><stop offset=".545" stop-color="#FDB946"/><stop offset=".682" stop-color="#FFC444"/><stop offset=".804" stop-color="#FFC244"/><stop offset=".867" stop-color="#FEBA46"/><stop offset=".916" stop-color="#FCAD49"/><stop offset=".958" stop-color="#F99A4D"/><stop offset=".996" stop-color="#F58152"/><stop offset="1" stop-color="#F57E53"/></linearGradient><linearGradient id="paint4_linear" x1="-9.06" y1="354.147" x2="113.734" y2="354.147" gradientUnits="userSpaceOnUse"><stop stop-color="#FCB148"/><stop offset=".052" stop-color="#FDBA46"/><stop offset=".142" stop-color="#FFC244"/><stop offset=".318" stop-color="#FFC444"/><stop offset=".485" stop-color="#FDB946"/><stop offset=".775" stop-color="#F99C4D"/><stop offset=".866" stop-color="#F8924F"/><stop offset="1" stop-color="#F8924F"/></linearGradient><linearGradient id="paint5_linear" x1="52.901" y1="340.315" x2="59.375" y2="394.508" gradientUnits="userSpaceOnUse"><stop stop-color="#FFDB44"/><stop offset="1" stop-color="#FEEF06"/></linearGradient><linearGradient id="paint6_linear" x1="52.619" y1="337.898" x2="54.607" y2="354.541" gradientUnits="userSpaceOnUse"><stop stop-color="#FFDB44"/><stop offset="1" stop-color="#FEEF06"/></linearGradient><linearGradient id="paint7_linear" x1="54.488" y1="352.796" x2="52.507" y2="336.212" gradientUnits="userSpaceOnUse"><stop offset=".004" stop-color="#F36F56"/><stop offset=".306" stop-color="#F99C4C"/><stop offset=".545" stop-color="#FDB946"/><stop offset=".682" stop-color="#FFC444"/><stop offset=".804" stop-color="#FFC244"/><stop offset=".867" stop-color="#FEBA46"/><stop offset=".916" stop-color="#FCAD49"/><stop offset=".958" stop-color="#F99A4D"/><stop offset=".996" stop-color="#F58152"/><stop offset="1" stop-color="#F57E53"/></linearGradient><linearGradient id="paint8_linear" x1="3.742" y1="341.75" x2="126.536" y2="341.75" gradientUnits="userSpaceOnUse"><stop stop-color="#FCB148"/><stop offset=".052" stop-color="#FDBA46"/><stop offset=".142" stop-color="#FFC244"/><stop offset=".318" stop-color="#FFC444"/><stop offset=".485" stop-color="#FDB946"/><stop offset=".775" stop-color="#F99C4D"/><stop offset=".866" stop-color="#F8924F"/><stop offset="1" stop-color="#F8924F"/></linearGradient><linearGradient id="paint9_linear" x1="65.703" y1="327.917" x2="72.177" y2="382.111" gradientUnits="userSpaceOnUse"><stop stop-color="#FFDB44"/><stop offset="1" stop-color="#FEEF06"/></linearGradient><linearGradient id="paint10_linear" x1="65.421" y1="325.501" x2="67.409" y2="342.144" gradientUnits="userSpaceOnUse"><stop stop-color="#FFDB44"/><stop offset="1" stop-color="#FEEF06"/></linearGradient><linearGradient id="paint11_linear" x1="67.29" y1="340.399" x2="65.309" y2="323.815" gradientUnits="userSpaceOnUse"><stop offset=".004" stop-color="#F36F56"/><stop offset=".306" stop-color="#F99C4C"/><stop offset=".545" stop-color="#FDB946"/><stop offset=".682" stop-color="#FFC444"/><stop offset=".804" stop-color="#FFC244"/><stop offset=".867" stop-color="#FEBA46"/><stop offset=".916" stop-color="#FCAD49"/><stop offset=".958" stop-color="#F99A4D"/><stop offset=".996" stop-color="#F58152"/><stop offset="1" stop-color="#F57E53"/></linearGradient><linearGradient id="paint12_linear" x1="11.509" y1="329.316" x2="134.303" y2="329.316" gradientUnits="userSpaceOnUse"><stop stop-color="#FCB148"/><stop offset=".052" stop-color="#FDBA46"/><stop offset=".142" stop-color="#FFC244"/><stop offset=".318" stop-color="#FFC444"/><stop offset=".485" stop-color="#FDB946"/><stop offset=".775" stop-color="#F99C4D"/><stop offset=".866" stop-color="#F8924F"/><stop offset="1" stop-color="#F8924F"/></linearGradient><linearGradient id="paint13_linear" x1="73.471" y1="315.484" x2="79.944" y2="369.677" gradientUnits="userSpaceOnUse"><stop stop-color="#FFDB44"/><stop offset="1" stop-color="#FEEF06"/></linearGradient><linearGradient id="paint14_linear" x1="73.189" y1="313.067" x2="75.178" y2="329.711" gradientUnits="userSpaceOnUse"><stop stop-color="#FFDB44"/><stop offset="1" stop-color="#FEEF06"/></linearGradient><linearGradient id="paint15_linear" x1="75.058" y1="327.966" x2="73.078" y2="311.381" gradientUnits="userSpaceOnUse"><stop offset=".004" stop-color="#F36F56"/><stop offset=".306" stop-color="#F99C4C"/><stop offset=".545" stop-color="#FDB946"/><stop offset=".682" stop-color="#FFC444"/><stop offset=".804" stop-color="#FFC244"/><stop offset=".867" stop-color="#FEBA46"/><stop offset=".916" stop-color="#FCAD49"/><stop offset=".958" stop-color="#F99A4D"/><stop offset=".996" stop-color="#F58152"/><stop offset="1" stop-color="#F57E53"/></linearGradient><linearGradient id="paint16_linear" x1="5.775" y1="315.901" x2="128.569" y2="315.901" gradientUnits="userSpaceOnUse"><stop stop-color="#FCB148"/><stop offset=".052" stop-color="#FDBA46"/><stop offset=".142" stop-color="#FFC244"/><stop offset=".318" stop-color="#FFC444"/><stop offset=".485" stop-color="#FDB946"/><stop offset=".775" stop-color="#F99C4D"/><stop offset=".866" stop-color="#F8924F"/><stop offset="1" stop-color="#F8924F"/></linearGradient><linearGradient id="paint17_linear" x1="67.737" y1="302.069" x2="74.21" y2="356.262" gradientUnits="userSpaceOnUse"><stop stop-color="#FFDB44"/><stop offset="1" stop-color="#FEEF06"/></linearGradient><linearGradient id="paint18_linear" x1="67.456" y1="299.652" x2="69.444" y2="316.296" gradientUnits="userSpaceOnUse"><stop stop-color="#FFDB44"/><stop offset="1" stop-color="#FEEF06"/></linearGradient><linearGradient id="paint19_linear" x1="69.325" y1="314.551" x2="67.344" y2="297.966" gradientUnits="userSpaceOnUse"><stop offset=".004" stop-color="#F36F56"/><stop offset=".306" stop-color="#F99C4C"/><stop offset=".545" stop-color="#FDB946"/><stop offset=".682" stop-color="#FFC444"/><stop offset=".804" stop-color="#FFC244"/><stop offset=".867" stop-color="#FEBA46"/><stop offset=".916" stop-color="#FCAD49"/><stop offset=".958" stop-color="#F99A4D"/><stop offset=".996" stop-color="#F58152"/><stop offset="1" stop-color="#F57E53"/></linearGradient><linearGradient id="paint20_linear" x1="-9.06" y1="303.468" x2="113.734" y2="303.468" gradientUnits="userSpaceOnUse"><stop stop-color="#FCB148"/><stop offset=".052" stop-color="#FDBA46"/><stop offset=".142" stop-color="#FFC244"/><stop offset=".318" stop-color="#FFC444"/><stop offset=".485" stop-color="#FDB946"/><stop offset=".775" stop-color="#F99C4D"/><stop offset=".866" stop-color="#F8924F"/><stop offset="1" stop-color="#F8924F"/></linearGradient><linearGradient id="paint21_linear" x1="52.901" y1="289.635" x2="59.375" y2="343.829" gradientUnits="userSpaceOnUse"><stop stop-color="#FFDB44"/><stop offset="1" stop-color="#FEEF06"/></linearGradient><linearGradient id="paint22_linear" x1="52.619" y1="287.219" x2="54.607" y2="303.862" gradientUnits="userSpaceOnUse"><stop stop-color="#FFDB44"/><stop offset="1" stop-color="#FEEF06"/></linearGradient><linearGradient id="paint23_linear" x1="54.488" y1="302.117" x2="52.507" y2="285.533" gradientUnits="userSpaceOnUse"><stop offset=".004" stop-color="#F36F56"/><stop offset=".306" stop-color="#F99C4C"/><stop offset=".545" stop-color="#FDB946"/><stop offset=".682" stop-color="#FFC444"/><stop offset=".804" stop-color="#FFC244"/><stop offset=".867" stop-color="#FEBA46"/><stop offset=".916" stop-color="#FCAD49"/><stop offset=".958" stop-color="#F99A4D"/><stop offset=".996" stop-color="#F58152"/><stop offset="1" stop-color="#F57E53"/></linearGradient><linearGradient id="paint24_linear" x1="3.742" y1="291.07" x2="126.536" y2="291.07" gradientUnits="userSpaceOnUse"><stop stop-color="#FCB148"/><stop offset=".052" stop-color="#FDBA46"/><stop offset=".142" stop-color="#FFC244"/><stop offset=".318" stop-color="#FFC444"/><stop offset=".485" stop-color="#FDB946"/><stop offset=".775" stop-color="#F99C4D"/><stop offset=".866" stop-color="#F8924F"/><stop offset="1" stop-color="#F8924F"/></linearGradient><linearGradient id="paint25_linear" x1="65.703" y1="277.238" x2="72.177" y2="331.431" gradientUnits="userSpaceOnUse"><stop stop-color="#FFDB44"/><stop offset="1" stop-color="#FEEF06"/></linearGradient><linearGradient id="paint26_linear" x1="65.421" y1="274.821" x2="67.409" y2="291.465" gradientUnits="userSpaceOnUse"><stop stop-color="#FFDB44"/><stop offset="1" stop-color="#FEEF06"/></linearGradient><linearGradient id="paint27_linear" x1="67.29" y1="289.72" x2="65.309" y2="273.135" gradientUnits="userSpaceOnUse"><stop offset=".004" stop-color="#F36F56"/><stop offset=".306" stop-color="#F99C4C"/><stop offset=".545" stop-color="#FDB946"/><stop offset=".682" stop-color="#FFC444"/><stop offset=".804" stop-color="#FFC244"/><stop offset=".867" stop-color="#FEBA46"/><stop offset=".916" stop-color="#FCAD49"/><stop offset=".958" stop-color="#F99A4D"/><stop offset=".996" stop-color="#F58152"/><stop offset="1" stop-color="#F57E53"/></linearGradient><linearGradient id="paint28_linear" x1="-2.917" y1="278.637" x2="119.877" y2="278.637" gradientUnits="userSpaceOnUse"><stop stop-color="#FCB148"/><stop offset=".052" stop-color="#FDBA46"/><stop offset=".142" stop-color="#FFC244"/><stop offset=".318" stop-color="#FFC444"/><stop offset=".485" stop-color="#FDB946"/><stop offset=".775" stop-color="#F99C4D"/><stop offset=".866" stop-color="#F8924F"/><stop offset="1" stop-color="#F8924F"/></linearGradient><linearGradient id="paint29_linear" x1="59.044" y1="264.805" x2="65.518" y2="318.998" gradientUnits="userSpaceOnUse"><stop stop-color="#FFDB44"/><stop offset="1" stop-color="#FEEF06"/></linearGradient><linearGradient id="paint30_linear" x1="58.763" y1="262.388" x2="60.751" y2="279.031" gradientUnits="userSpaceOnUse"><stop stop-color="#FFDB44"/><stop offset="1" stop-color="#FEEF06"/></linearGradient><linearGradient id="paint31_linear" x1="60.632" y1="277.286" x2="58.651" y2="260.702" gradientUnits="userSpaceOnUse"><stop offset=".004" stop-color="#F36F56"/><stop offset=".306" stop-color="#F99C4C"/><stop offset=".545" stop-color="#FDB946"/><stop offset=".682" stop-color="#FFC444"/><stop offset=".804" stop-color="#FFC244"/><stop offset=".867" stop-color="#FEBA46"/><stop offset=".916" stop-color="#FCAD49"/><stop offset=".958" stop-color="#F99A4D"/><stop offset=".996" stop-color="#F58152"/><stop offset="1" stop-color="#F57E53"/></linearGradient><linearGradient id="paint32_linear" x1="64.708" y1="229.475" x2="11.675" y2="246.495" gradientUnits="userSpaceOnUse"><stop stop-color="#FCB148"/><stop offset=".052" stop-color="#FDBA46"/><stop offset=".142" stop-color="#FFC244"/><stop offset=".318" stop-color="#FFC444"/><stop offset=".485" stop-color="#FDB946"/><stop offset=".775" stop-color="#F99C4D"/><stop offset=".866" stop-color="#F8924F"/><stop offset="1" stop-color="#F8924F"/></linearGradient><linearGradient id="paint33_linear" x1="107.608" y1="176.686" x2="60.264" y2="281.136" gradientUnits="userSpaceOnUse"><stop stop-color="#FFDB44"/><stop offset="1" stop-color="#FEEF06"/></linearGradient><linearGradient id="paint34_linear" x1="98.899" y1="286.974" x2="89.764" y2="237.069" gradientUnits="userSpaceOnUse"><stop stop-color="#FCB148"/><stop offset=".052" stop-color="#FDBA46"/><stop offset=".142" stop-color="#FFC244"/><stop offset=".318" stop-color="#FFC444"/><stop offset=".485" stop-color="#FDB946"/><stop offset=".775" stop-color="#F99C4D"/><stop offset=".866" stop-color="#F8924F"/><stop offset="1" stop-color="#F8924F"/></linearGradient><linearGradient id="paint35_linear" x1="79.53" y1="206.197" x2="117.178" y2="286.115" gradientUnits="userSpaceOnUse"><stop stop-color="#FCB148"/><stop offset=".052" stop-color="#FDBA46"/><stop offset=".142" stop-color="#FFC244"/><stop offset=".318" stop-color="#FFC444"/><stop offset=".485" stop-color="#FDB946"/><stop offset=".775" stop-color="#F99C4D"/><stop offset=".866" stop-color="#F8924F"/><stop offset="1" stop-color="#F8924F"/></linearGradient><linearGradient id="paint36_linear" x1="78.031" y1="189" x2="96.961" y2="259.948" gradientUnits="userSpaceOnUse"><stop stop-color="#FFDB44"/><stop offset="1" stop-color="#FEEF06"/></linearGradient><linearGradient id="paint37_linear" x1="68.455" y1="211.369" x2="106.026" y2="291.126" gradientUnits="userSpaceOnUse"><stop stop-color="#FCB148"/><stop offset=".052" stop-color="#FDBA46"/><stop offset=".142" stop-color="#FFC244"/><stop offset=".318" stop-color="#FFC444"/><stop offset=".485" stop-color="#FDB946"/><stop offset=".775" stop-color="#F99C4D"/><stop offset=".866" stop-color="#F8924F"/><stop offset="1" stop-color="#F8924F"/></linearGradient><clipPath id="clip0"><path fill="#fff" transform="translate(0 176)" d="M0 0h132.416v200H0z"/></clipPath></defs></svg>